HIERARCHY
ROOT Hips
{
	OFFSET 0 93.02 0
	CHANNELS 6 Xposition Yposition Zposition Yrotation Xrotation Zrotation 
	JOINT RightUpLeg
	{
		OFFSET -9.25 -1.59 0
		CHANNELS 6 Xposition Yposition Zposition Yrotation Xrotation Zrotation 
		JOINT RightLeg
		{
			OFFSET 0 -41.87 0
			CHANNELS 6 Xposition Yposition Zposition Yrotation Xrotation Zrotation 
			JOINT RightFoot
			{
				OFFSET 0 -41.87 0
				CHANNELS 6 Xposition Yposition Zposition Yrotation Xrotation Zrotation 
				End Site
				{
					OFFSET 0 -7.69 17.5
				}
			}
		}
	}
	JOINT LeftUpLeg
	{
		OFFSET 9.25 -1.59 0
		CHANNELS 6 Xposition Yposition Zposition Yrotation Xrotation Zrotation 
		JOINT LeftLeg
		{
			OFFSET 0 -41.87 0
			CHANNELS 6 Xposition Yposition Zposition Yrotation Xrotation Zrotation 
			JOINT LeftFoot
			{
				OFFSET 0 -41.87 0
				CHANNELS 6 Xposition Yposition Zposition Yrotation Xrotation Zrotation 
				End Site
				{
					OFFSET 0 -7.69 17.5
				}
			}
		}
	}
	JOINT Spine
	{
		OFFSET 0 14.307 0
		CHANNELS 6 Xposition Yposition Zposition Yrotation Xrotation Zrotation 
		JOINT Spine1
		{
			OFFSET 0 9.718 0
			CHANNELS 6 Xposition Yposition Zposition Yrotation Xrotation Zrotation 
			JOINT Spine2
			{
				OFFSET 0 10.12 0
				CHANNELS 6 Xposition Yposition Zposition Yrotation Xrotation Zrotation 
				JOINT Spine3
				{
					OFFSET 0 9.718 0
					CHANNELS 6 Xposition Yposition Zposition Yrotation Xrotation Zrotation 
					JOINT Neck
					{
						OFFSET 0 10.387 0
						CHANNELS 6 Xposition Yposition Zposition Yrotation Xrotation Zrotation 
						JOINT Head
						{
							OFFSET 0 9.47 0
							CHANNELS 6 Xposition Yposition Zposition Yrotation Xrotation Zrotation 
							End Site
							{
								OFFSET 0 15.95 0
							}
						}
					}
					JOINT RightShoulder
					{
						OFFSET -3.2 6.925 0
						CHANNELS 6 Xposition Yposition Zposition Yrotation Xrotation Zrotation 
						JOINT RightArm
						{
							OFFSET -12.8 0 0
							CHANNELS 6 Xposition Yposition Zposition Yrotation Xrotation Zrotation 
							JOINT RightForeArm
							{
								OFFSET -26.5 0 0
								CHANNELS 6 Xposition Yposition Zposition Yrotation Xrotation Zrotation 
								JOINT RightHand
								{
									OFFSET -26 0 0
									CHANNELS 6 Xposition Yposition Zposition Yrotation Xrotation Zrotation 
									JOINT RightHandThumb1
									{
										OFFSET -2.489 0.19 3.121
										CHANNELS 6 Xposition Yposition Zposition Yrotation Xrotation Zrotation 
										JOINT RightHandThumb2
										{
											OFFSET -3.683 0 0
											CHANNELS 6 Xposition Yposition Zposition Yrotation Xrotation Zrotation 
											JOINT RightHandThumb3
											{
												OFFSET -2.558 0 0
												CHANNELS 6 Xposition Yposition Zposition Yrotation Xrotation Zrotation 
												End Site
												{
													OFFSET -2.194 0 0
												}
											}
										}
									}
									JOINT RightInHandIndex
									{
										OFFSET -3.224 0.508 1.978
										CHANNELS 6 Xposition Yposition Zposition Yrotation Xrotation Zrotation 
										JOINT RightHandIndex1
										{
											OFFSET -5.217 -0.091 0.999
											CHANNELS 6 Xposition Yposition Zposition Yrotation Xrotation Zrotation 
											JOINT RightHandIndex2
											{
												OFFSET -3.619 0 0
												CHANNELS 6 Xposition Yposition Zposition Yrotation Xrotation Zrotation 
												JOINT RightHandIndex3
												{
													OFFSET -2.052 0 0
													CHANNELS 6 Xposition Yposition Zposition Yrotation Xrotation Zrotation 
													End Site
													{
														OFFSET -1.805 0 0
													}
												}
											}
										}
									}
									JOINT RightInHandMiddle
									{
										OFFSET -3.382 0.517 0.757
										CHANNELS 6 Xposition Yposition Zposition Yrotation Xrotation Zrotation 
										JOINT RightHandMiddle1
										{
											OFFSET -5.174 -0.084 0.314
											CHANNELS 6 Xposition Yposition Zposition Yrotation Xrotation Zrotation 
											JOINT RightHandMiddle2
											{
												OFFSET -3.949 0 0
												CHANNELS 6 Xposition Yposition Zposition Yrotation Xrotation Zrotation 
												JOINT RightHandMiddle3
												{
													OFFSET -2.476 0 0
													CHANNELS 6 Xposition Yposition Zposition Yrotation Xrotation Zrotation 
													End Site
													{
														OFFSET -1.975 0 0
													}
												}
											}
										}
									}
									JOINT RightInHandRing
									{
										OFFSET -3.365 0.538 -0.129
										CHANNELS 6 Xposition Yposition Zposition Yrotation Xrotation Zrotation 
										JOINT RightHandRing1
										{
											OFFSET -4.635 -0.022 -0.479
											CHANNELS 6 Xposition Yposition Zposition Yrotation Xrotation Zrotation 
											JOINT RightHandRing2
											{
												OFFSET -3.442 0 0
												CHANNELS 6 Xposition Yposition Zposition Yrotation Xrotation Zrotation 
												JOINT RightHandRing3
												{
													OFFSET -2.388 0 0
													CHANNELS 6 Xposition Yposition Zposition Yrotation Xrotation Zrotation 
													End Site
													{
														OFFSET -1.857 0 0
													}
												}
											}
										}
									}
									JOINT RightInHandPinky
									{
										OFFSET -3.161 0.469 -1.202
										CHANNELS 6 Xposition Yposition Zposition Yrotation Xrotation Zrotation 
										JOINT RightHandPinky1
										{
											OFFSET -4.141 -0.022 -1.091
											CHANNELS 6 Xposition Yposition Zposition Yrotation Xrotation Zrotation 
											JOINT RightHandPinky2
											{
												OFFSET -2.757 0 0
												CHANNELS 6 Xposition Yposition Zposition Yrotation Xrotation Zrotation 
												JOINT RightHandPinky3
												{
													OFFSET -1.742 0 0
													CHANNELS 6 Xposition Yposition Zposition Yrotation Xrotation Zrotation 
													End Site
													{
														OFFSET -1.645 0 0
													}
												}
											}
										}
									}
								}
							}
						}
					}
					JOINT LeftShoulder
					{
						OFFSET 3.2 6.925 0
						CHANNELS 6 Xposition Yposition Zposition Yrotation Xrotation Zrotation 
						JOINT LeftArm
						{
							OFFSET 12.8 0 0
							CHANNELS 6 Xposition Yposition Zposition Yrotation Xrotation Zrotation 
							JOINT LeftForeArm
							{
								OFFSET 26.5 0 0
								CHANNELS 6 Xposition Yposition Zposition Yrotation Xrotation Zrotation 
								JOINT LeftHand
								{
									OFFSET 26 0 0
									CHANNELS 6 Xposition Yposition Zposition Yrotation Xrotation Zrotation 
									JOINT LeftHandThumb1
									{
										OFFSET 2.489 0.19 3.121
										CHANNELS 6 Xposition Yposition Zposition Yrotation Xrotation Zrotation 
										JOINT LeftHandThumb2
										{
											OFFSET 3.683 0 0
											CHANNELS 6 Xposition Yposition Zposition Yrotation Xrotation Zrotation 
											JOINT LeftHandThumb3
											{
												OFFSET 2.558 0 0
												CHANNELS 6 Xposition Yposition Zposition Yrotation Xrotation Zrotation 
												End Site
												{
													OFFSET 2.194 0 0
												}
											}
										}
									}
									JOINT LeftInHandIndex
									{
										OFFSET 3.224 0.508 1.978
										CHANNELS 6 Xposition Yposition Zposition Yrotation Xrotation Zrotation 
										JOINT LeftHandIndex1
										{
											OFFSET 5.217 -0.091 0.999
											CHANNELS 6 Xposition Yposition Zposition Yrotation Xrotation Zrotation 
											JOINT LeftHandIndex2
											{
												OFFSET 3.619 0 0
												CHANNELS 6 Xposition Yposition Zposition Yrotation Xrotation Zrotation 
												JOINT LeftHandIndex3
												{
													OFFSET 2.052 0 0
													CHANNELS 6 Xposition Yposition Zposition Yrotation Xrotation Zrotation 
													End Site
													{
														OFFSET 1.805 0 0
													}
												}
											}
										}
									}
									JOINT LeftInHandMiddle
									{
										OFFSET 3.382 0.517 0.757
										CHANNELS 6 Xposition Yposition Zposition Yrotation Xrotation Zrotation 
										JOINT LeftHandMiddle1
										{
											OFFSET 5.174 -0.084 0.314
											CHANNELS 6 Xposition Yposition Zposition Yrotation Xrotation Zrotation 
											JOINT LeftHandMiddle2
											{
												OFFSET 3.949 0 0
												CHANNELS 6 Xposition Yposition Zposition Yrotation Xrotation Zrotation 
												JOINT LeftHandMiddle3
												{
													OFFSET 2.476 0 0
													CHANNELS 6 Xposition Yposition Zposition Yrotation Xrotation Zrotation 
													End Site
													{
														OFFSET 1.975 0 0
													}
												}
											}
										}
									}
									JOINT LeftInHandRing
									{
										OFFSET 3.365 0.538 -0.129
										CHANNELS 6 Xposition Yposition Zposition Yrotation Xrotation Zrotation 
										JOINT LeftHandRing1
										{
											OFFSET 4.635 -0.022 -0.479
											CHANNELS 6 Xposition Yposition Zposition Yrotation Xrotation Zrotation 
											JOINT LeftHandRing2
											{
												OFFSET 3.442 0 0
												CHANNELS 6 Xposition Yposition Zposition Yrotation Xrotation Zrotation 
												JOINT LeftHandRing3
												{
													OFFSET 2.388 0 0
													CHANNELS 6 Xposition Yposition Zposition Yrotation Xrotation Zrotation 
													End Site
													{
														OFFSET 1.857 0 0
													}
												}
											}
										}
									}
									JOINT LeftInHandPinky
									{
										OFFSET 3.161 0.469 -1.202
										CHANNELS 6 Xposition Yposition Zposition Yrotation Xrotation Zrotation 
										JOINT LeftHandPinky1
										{
											OFFSET 4.141 -0.022 -1.091
											CHANNELS 6 Xposition Yposition Zposition Yrotation Xrotation Zrotation 
											JOINT LeftHandPinky2
											{
												OFFSET 2.757 0 0
												CHANNELS 6 Xposition Yposition Zposition Yrotation Xrotation Zrotation 
												JOINT LeftHandPinky3
												{
													OFFSET 1.742 0 0
													CHANNELS 6 Xposition Yposition Zposition Yrotation Xrotation Zrotation 
													End Site
													{
														OFFSET 1.645 0 0
													}
												}
											}
										}
									}
								}
							}
						}
					}
				}
			}
		}
	}
}
MOTION
Frames: 4
Frame Time: 0.008
2.75817 89.8795 -2.86867 159.534 5.9553 0.59234 -9.27647 -1.5813 0.0287317 -0.942361 -29.4157 -11.4004 0.0513408 -41.886 0.0834036 11.177 34.6238 5.43677 0.525426 -40.4452 0.430444 0.000391274 -2.39463 -0.00659872 9.26472 -1.63332 -0.156943 2.58547 -24.0042 17.0866 0.0476234 -41.8628 -0.0878492 3.64628 22.1951 2.21039 0.669815 -43.3181 -0.959809 -0.00139943 -2.39263 0.0298064 -0.0358093 14.3011 0.0543359 -4.02708 6.64856 6.77044 -0.00875974 9.71847 0.0201045 -0.962401 1.71887 1.73587 0.0246849 10.1184 0.000925448 -1.45147 2.92958 2.85905 0.0207521 9.71808 0.0311292 -0.32989 -0.0140153 -0.155872 0.00556697 10.3889 0.0526822 -0.330478 -0.0147445 -0.155937 0.0103087 9.46835 0.0562665 -5.93424 -0.562331 -2.78655 -3.19635 6.90672 0.0231695 -2.04666 2.58145 -1.45023 -12.78 0.00929046 -0.00489547 -9.2529 -27.1522 82.7764 -26.5118 -0.035998 0.0970499 66.8791 3.59411 -27.7323 -26.0097 -0.0577884 0.0439996 -2.76729 -13.1845 8.86778 -2.48905 0.190105 3.12053 21.86 -0 30 -3.68274 0 0 -10 -0 0 -2.55832 0 0 -10 -0 0 -3.22368 0.508421 1.97842 0 -0 0 -5.21684 -0.0913684 0.999158 2.55 -0 20 -3.61937 0 0 0 -0 24 -2.05211 0 0 0 -0 20 -3.38211 0.517263 0.756737 0 -0 0 -5.1741 -0.084 0.313895 0 -0 20 -3.94947 0 0 0 -0 24 -2.47579 0 0 0 -0 20 -3.36516 0.537895 -0.128947 0 -0 0 -4.63474 -0.0221053 -0.478947 -3 -0 20 -3.44238 0 0 0 -0 24 -2.38811 0 0 0 -0 20 -3.16105 0.469368 -1.20179 0 -0 0 -4.14105 -0.0221053 -1.09053 -8.83 -0 20 -2.75653 0 0 0 -0 24 -1.74189 0 0 0 -0 20 3.20494 6.93307 0.0159452 -4.08096 0.923888 -6.774 12.7869 -8.62634e-005 -0.00958842 -25.4499 -14.9042 -80.3405 26.4016 0.0579812 0.141037 -36.6739 4.7541 -6.6572 25.9668 0.0841448 0.0982825 4.91811 2.57364 -1.79827 2.48905 0.190105 3.12053 -21.86 -0 -30 3.68274 0 0 10 -0 0 2.55832 0 0 10 -0 0 3.22368 0.508421 1.97842 0 -0 0 5.21684 -0.0913684 0.999158 -2.55 -0 -20 3.61937 0 0 0 -0 -24 2.05211 0 0 0 -0 -20 3.38211 0.517263 0.756737 0 -0 0 5.1741 -0.084 0.313895 0 -0 -20 3.94947 0 0 0 -0 -24 2.47579 0 0 0 -0 -20 3.36516 0.537895 -0.128947 0 -0 0 4.63474 -0.0221053 -0.478947 3 -0 -20 3.44238 0 0 0 -0 -24 2.38811 0 0 0 -0 -20 3.16105 0.469368 -1.20179 0 -0 0 4.14105 -0.0221053 -1.09053 8.83 -0 -20 2.75653 0 0 0 -0 -24 1.74189 0 0 0 -0 -20 
2.90943 89.8435 -2.8119 159.618 6.00681 0.529518 -9.2675 -1.58111 0.0213389 -0.542453 -29.5842 -11.5794 0.0478756 -41.8826 0.0794259 11.0987 34.8113 5.84572 0.481442 -40.4866 0.333627 0.000382619 -2.39463 -0.00659833 9.26445 -1.62586 -0.14281 1.87195 -24.0635 17.4226 0.0710189 -41.8336 -0.125265 4.16672 22.3624 2.20585 0.791827 -43.3915 -0.992864 -0.00139943 -2.39263 0.0298064 -0.0338109 14.3011 0.056587 -4.07916 6.59396 6.77395 -0.0085727 9.71923 0.0188345 -0.975922 1.70561 1.73695 0.0207819 10.1185 0.00112424 -1.47479 2.90907 2.86068 0.0171799 9.71813 0.0315264 -0.321631 -0.0165062 -0.155164 0.00167804 10.3893 0.0488586 -0.322193 -0.0172115 -0.155228 0.00489453 9.46828 0.0527512 -5.78242 -0.598485 -2.77242 -3.19793 6.90737 0.0255712 -2.02055 2.58519 -1.35544 -12.7838 0.010573 -0.000760811 -9.22888 -26.8926 82.7436 -26.5084 -0.0319626 0.101495 66.8759 3.55528 -27.7113 -26.0092 -0.0589295 0.0456679 -2.71251 -13.1061 8.69656 -2.48905 0.190105 3.12053 21.86 -0 30 -3.68274 0 0 -10 -0 0 -2.55832 0 0 -10 -0 0 -3.22368 0.508421 1.97842 0 -0 0 -5.21684 -0.0913684 0.999158 2.55 -0 20 -3.61937 0 0 0 -0 24 -2.05211 0 0 0 -0 20 -3.38211 0.517263 0.756737 0 -0 0 -5.1741 -0.084 0.313895 0 -0 20 -3.94947 0 0 0 -0 24 -2.47579 0 0 0 -0 20 -3.36516 0.537895 -0.128947 0 -0 0 -4.63474 -0.0221053 -0.478947 -3 -0 20 -3.44238 0 0 0 -0 24 -2.38811 0 0 0 -0 20 -3.16105 0.469368 -1.20179 0 -0 0 -4.14105 -0.0221053 -1.09053 -8.83 -0 20 -2.75653 0 0 0 -0 24 -1.74189 0 0 0 -0 20 3.2048 6.93232 0.014922 -3.98074 0.869869 -6.68457 12.7904 -0.00106572 -0.0107115 -25.1414 -14.9072 -80.5475 26.5405 -0.084811 -0.0762018 -37.9337 4.92926 -6.01576 25.9647 -0.0841655 -0.140117 5.90793 2.61203 -2.65319 2.48905 0.190105 3.12053 -21.86 -0 -30 3.68274 0 0 10 -0 0 2.55832 0 0 10 -0 0 3.22368 0.508421 1.97842 0 -0 0 5.21684 -0.0913684 0.999158 -2.55 -0 -20 3.61937 0 0 0 -0 -24 2.05211 0 0 0 -0 -20 3.38211 0.517263 0.756737 0 -0 0 5.1741 -0.084 0.313895 0 -0 -20 3.94947 0 0 0 -0 -24 2.47579 0 0 0 -0 -20 3.36516 0.537895 -0.128947 0 -0 0 4.63474 -0.0221053 -0.478947 3 -0 -20 3.44238 0 0 0 -0 -24 2.38811 0 0 0 -0 -20 3.16105 0.469368 -1.20179 0 -0 0 4.14105 -0.0221053 -1.09053 8.83 -0 -20 2.75653 0 0 0 -0 -24 1.74189 0 0 0 -0 -20 
3.03482 89.7871 -2.74011 159.683 6.0905 0.474947 -9.25599 -1.58053 0.0140579 -0.229824 -29.8282 -11.7506 0.0455731 -41.8823 0.0790337 10.886 35.0737 6.16635 0.479753 -40.5082 0.263498 0.000383638 -2.39463 -0.00659344 9.25957 -1.62256 -0.130613 1.28772 -24.293 17.7551 0.0922685 -41.8052 -0.154984 4.53348 22.6394 2.15733 0.878936 -43.4585 -1.08584 -0.00139943 -2.39263 0.0298064 -0.0304038 14.3011 0.0601459 -4.12801 6.52765 6.77744 -0.00738663 9.72057 0.0190357 -0.988736 1.68932 1.73791 0.0172457 10.1187 0.00178454 -1.49723 2.88353 2.86216 0.0142447 9.71824 0.0326943 -0.314875 -0.0192313 -0.151304 -0.00522124 10.3894 0.0446141 -0.315425 -0.0199041 -0.15136 -0.00268502 9.46802 0.0484869 -5.65842 -0.634413 -2.70129 -3.19885 6.90696 0.0266631 -1.95447 2.5475 -1.25392 -12.7851 0.00955553 -0.00155069 -9.20213 -26.6325 82.6723 -26.5053 -0.0295737 0.104176 66.8708 3.47712 -27.6789 -26.0089 -0.056696 0.0473454 -2.68186 -13.0387 8.55216 -2.48905 0.190105 3.12053 21.86 -0 30 -3.68274 0 0 -10 -0 0 -2.55832 0 0 -10 -0 0 -3.22368 0.508421 1.97842 0 -0 0 -5.21684 -0.0913684 0.999158 2.55 -0 20 -3.61937 0 0 0 -0 24 -2.05211 0 0 0 -0 20 -3.38211 0.517263 0.756737 0 -0 0 -5.1741 -0.084 0.313895 0 -0 20 -3.94947 0 0 0 -0 24 -2.47579 0 0 0 -0 20 -3.36516 0.537895 -0.128947 0 -0 0 -4.63474 -0.0221053 -0.478947 -3 -0 20 -3.44238 0 0 0 -0 24 -2.38811 0 0 0 -0 20 -3.16105 0.469368 -1.20179 0 -0 0 -4.14105 -0.0221053 -1.09053 -8.83 -0 20 -2.75653 0 0 0 -0 24 -1.74189 0 0 0 -0 20 3.2046 6.93235 0.0157963 -3.87067 0.793985 -6.58462 12.7897 -0.000662678 -0.0108234 -24.802 -14.9241 -80.7993 26.5397 -0.0787596 -0.075579 -38.1331 5.30447 -6.06346 25.9636 -0.0794007 -0.136167 5.90314 2.50755 -2.78115 2.48905 0.190105 3.12053 -21.86 -0 -30 3.68274 0 0 10 -0 0 2.55832 0 0 10 -0 0 3.22368 0.508421 1.97842 0 -0 0 5.21684 -0.0913684 0.999158 -2.55 -0 -20 3.61937 0 0 0 -0 -24 2.05211 0 0 0 -0 -20 3.38211 0.517263 0.756737 0 -0 0 5.1741 -0.084 0.313895 0 -0 -20 3.94947 0 0 0 -0 -24 2.47579 0 0 0 -0 -20 3.36516 0.537895 -0.128947 0 -0 0 4.63474 -0.0221053 -0.478947 3 -0 -20 3.44238 0 0 0 -0 -24 2.38811 0 0 0 -0 -20 3.16105 0.469368 -1.20179 0 -0 0 4.14105 -0.0221053 -1.09053 8.83 -0 -20 2.75653 0 0 0 -0 -24 1.74189 0 0 0 -0 -20 
3.13655 89.7062 -2.67788 159.683 6.0905 0.474947 -9.24789 -1.57 0.0173078 0.00461612 -30.017 -11.9474 0.0360228 -41.8827 0.0766514 10.6568 35.3795 6.4438 0.509102 -40.5022 0.214483 0.000386274 -2.39463 -0.00659445 9.25072 -1.63781 -0.153058 0.828921 -24.5062 17.9522 0.0923672 -41.8055 -0.15568 4.69776 23.1973 2.17849 0.947364 -43.4975 -1.0317 -0.00139674 -2.39263 0.0298079 -0.00921251 14.3014 0.0912839 -4.15754 6.52363 6.74908 0.000306993 9.723 0.0253448 -0.996382 1.68851 1.73107 0.0181557 10.119 0.00274685 -1.51052 2.88275 2.85078 0.0148017 9.71836 0.0322809 -0.309721 -0.023281 -0.144751 -0.0131784 10.3891 0.0371226 -0.310237 -0.0239085 -0.144805 -0.0129692 9.46768 0.0405463 -5.56256 -0.691293 -2.58068 -3.19757 6.90816 0.0288563 -1.88621 2.46586 -1.13188 -12.7814 0.0084137 -0.00266229 -9.13548 -26.3744 82.5435 -26.5027 -0.0310158 0.103639 66.8893 3.35374 -27.6372 -26.0079 -0.0538956 0.049201 -2.68408 -12.9882 8.44608 -2.48905 0.190105 3.12053 21.86 -0 30 -3.68274 0 0 -10 -0 0 -2.55832 0 0 -10 -0 0 -3.22368 0.508421 1.97842 0 -0 0 -5.21684 -0.0913684 0.999158 2.55 -0 20 -3.61937 0 0 0 -0 24 -2.05211 0 0 0 -0 20 -3.38211 0.517263 0.756737 0 -0 0 -5.1741 -0.084 0.313895 0 -0 20 -3.94947 0 0 0 -0 24 -2.47579 0 0 0 -0 20 -3.36516 0.537895 -0.128947 0 -0 0 -4.63474 -0.0221053 -0.478947 -3 -0 20 -3.44238 0 0 0 -0 24 -2.38811 0 0 0 -0 20 -3.16105 0.469368 -1.20179 0 -0 0 -4.14105 -0.0221053 -1.09053 -8.83 -0 20 -2.75653 0 0 0 -0 24 -1.74189 0 0 0 -0 20 3.20653 6.93029 0.0162098 -3.73574 0.682623 -6.4884 12.7895 -0.00247724 -0.00986463 -24.4403 -14.9387 -81.0864 26.5115 -0.042134 -0.0327104 -38.0991 5.66041 -6.26442 25.9632 -0.0383375 -0.0835822 5.69871 2.42411 -2.78449 2.48905 0.190105 3.12053 -21.86 -0 -30 3.68274 0 0 10 -0 0 2.55832 0 0 10 -0 0 3.22368 0.508421 1.97842 0 -0 0 5.21684 -0.0913684 0.999158 -2.55 -0 -20 3.61937 0 0 0 -0 -24 2.05211 0 0 0 -0 -20 3.38211 0.517263 0.756737 0 -0 0 5.1741 -0.084 0.313895 0 -0 -20 3.94947 0 0 0 -0 -24 2.47579 0 0 0 -0 -20 3.36516 0.537895 -0.128947 0 -0 0 4.63474 -0.0221053 -0.478947 3 -0 -20 3.44238 0 0 0 -0 -24 2.38811 0 0 0 -0 -20 3.16105 0.469368 -1.20179 0 -0 0 4.14105 -0.0221053 -1.09053 8.83 -0 -20 2.75653 0 0 0 -0 -24 1.74189 0 0 0 -0 -20 
